<?xml version="1.0" encoding="utf-8"?>
<!-- Generator: Adobe Illustrator 22.0.1, SVG Export Plug-In . SVG Version: 6.00 Build 0)  -->
<svg version="1.1" id="Layer_1" xmlns="http://www.w3.org/2000/svg" xmlns:xlink="http://www.w3.org/1999/xlink" x="0px" y="0px"
	 viewBox="0 0 203.5 200.9" style="enable-background:new 0 0 203.5 200.9;" xml:space="preserve">
<style type="text/css">
	.st0{fill:#CEB533;}
	.st1{fill:none;stroke:#FFEFAF;stroke-width:2;stroke-miterlimit:10;}
	.st2{fill:none;stroke:#FFEFB0;stroke-width:2;stroke-miterlimit:10;}
	.st3{fill:#FFEFB0;}
</style>
<polygon class="st0" points="183.5,105.8 195.2,98.4 183.5,90.9 193.7,81.5 180.9,76.2 189.4,65.2 175.8,62.2 182.2,49.9 
	168.4,49.3 172.6,36.1 158.8,37.9 160.6,24.2 147.4,28.4 146.8,14.5 134.5,20.9 131.5,7.3 120.5,15.8 115.2,3 105.8,13.2 98.4,1.5 
	90.9,13.2 81.5,3 76.2,15.8 65.2,7.3 62.2,20.9 49.9,14.5 49.3,28.4 36.1,24.2 37.9,37.9 24.2,36.1 28.4,49.3 14.5,49.9 20.9,62.2 
	7.3,65.2 15.8,76.2 3,81.5 13.2,90.9 1.5,98.4 13.2,105.8 3,115.2 15.8,120.5 7.3,131.5 20.9,134.5 14.5,146.8 28.4,147.4 
	24.2,160.6 37.9,158.8 36.1,172.6 49.3,168.4 49.9,182.2 62.2,175.8 65.2,189.4 76.2,180.9 81.5,193.7 90.9,183.5 98.4,195.2 
	105.8,183.5 115.2,193.7 120.5,180.9 131.5,189.4 134.5,175.8 146.8,182.2 147.4,167.4 160.6,171.6 158.9,158.8 172.6,160.6 
	168.4,147.4 182.2,146.8 175.8,134.5 189.4,131.5 180.9,120.5 193.7,115.2 "/>
<circle class="st1" cx="98.4" cy="98.4" r="72"/>
<circle class="st1" cx="98.4" cy="98.4" r="75.5"/>
<circle class="st2" cx="98.4" cy="98.4" r="41.4"/>
<circle class="st2" cx="98.4" cy="98.4" r="45.4"/>
<g>
	<path class="st3" d="M67.2,149.1l-6.1-3.5l7-0.9l1.3-7.1l3,6.7l7.1-0.8l-5.2,4.8l2.7,6.3l-6-3.4l-5.1,4.5L67.2,149.1z"/>
	<path class="st3" d="M63.9,133.2l-13,13.5l-2.2-2.7l7.7-7.7l-9.3,5.8l-1.7-2.1l7.4-8l-9.1,6l-2.2-2.7l15.8-10.1l2.3,2.8l-7.7,8.4
		l9.6-6L63.9,133.2z"/>
	<path class="st3" d="M55.8,122.5L39,130.4l-3.6-7.6l2.5-1.2l1.8,3.9l4.2-2l-1.4-2.9l2.6-1.2l1.4,2.9l5-2.4l-1.8-3.9l2.5-1.2
		L55.8,122.5z"/>
	<path class="st3" d="M52,113.7l-18.1,4.5l-1-4l15.4-3.8l-1-4.2l2.7-0.7L52,113.7z"/>
	<path class="st3" d="M49.9,99.6c0,1.4-0.2,2.5-0.7,3.4s-1.2,1.4-2.1,1.8c-0.9,0.4-2,0.6-3.3,0.6l-6.7,0.2c-1.3,0-2.4-0.1-3.3-0.4
		c-0.9-0.3-1.7-0.9-2.2-1.7c-0.5-0.8-0.8-1.9-0.9-3.3c0-1.4,0.2-2.5,0.6-3.3c0.4-0.8,1-1.4,1.8-1.7c0.8-0.3,1.7-0.5,2.8-0.6l1.6,0
		l0.1,4l-1.9,0.1c-0.4,0-0.7,0-1.1,0.1c-0.3,0-0.6,0.2-0.8,0.4c-0.2,0.2-0.3,0.5-0.3,1c0,0.4,0.1,0.7,0.4,0.9
		c0.2,0.2,0.5,0.3,0.9,0.4c0.3,0,0.7,0.1,1.1,0l8.8-0.3c0.4,0,0.8-0.1,1.1-0.1c0.3-0.1,0.6-0.2,0.8-0.4c0.2-0.2,0.3-0.5,0.3-0.9
		c0-0.4-0.1-0.7-0.4-0.9c-0.2-0.2-0.5-0.3-0.9-0.3c-0.4,0-0.7,0-1.1,0l-2,0.1l-0.1-4l1.6,0c1.1,0,2,0.1,2.9,0.4
		c0.8,0.3,1.5,0.8,2,1.6C49.6,97.1,49.9,98.2,49.9,99.6z"/>
	<path class="st3" d="M51.1,87.8c-0.3,1.4-0.8,2.4-1.4,3.1c-0.7,0.7-1.5,1.1-2.4,1.2c-1,0.1-2.1,0.1-3.3-0.2l-6.8-1.5
		c-1.3-0.3-2.3-0.7-3.1-1.2c-0.8-0.5-1.4-1.3-1.7-2.2s-0.3-2,0-3.4c0.3-1.4,0.8-2.4,1.4-3.1c0.6-0.7,1.5-1.1,2.4-1.3
		c1-0.1,2.1-0.1,3.3,0.2l6.8,1.5c1.2,0.3,2.3,0.7,3.1,1.2s1.4,1.3,1.7,2.2C51.4,85.3,51.4,86.4,51.1,87.8z M48.2,87.2
		c0.1-0.4,0.1-0.7-0.1-1c-0.2-0.2-0.4-0.4-0.7-0.6c-0.3-0.1-0.6-0.2-1-0.3l-8.8-1.9c-0.4-0.1-0.7-0.1-1-0.1c-0.3,0-0.6,0.1-0.9,0.2
		c-0.3,0.1-0.4,0.4-0.5,0.9c-0.1,0.4,0,0.7,0.1,0.9c0.2,0.2,0.4,0.4,0.7,0.6c0.3,0.1,0.6,0.2,1,0.3l8.8,1.9c0.3,0.1,0.7,0.1,1,0.1
		c0.3,0,0.6,0,0.9-0.2C47.9,87.9,48.1,87.6,48.2,87.2z"/>
	<path class="st3" d="M52.3,80.9l-16.2-9.2l2.1-3.9l10.5,3.4L40.3,64l2-3.7L58.9,69l-1.4,2.6l-11-5.7l9.8,7.9L55,76L43,72l10.8,6.3
		L52.3,80.9z"/>
	<path class="st3" d="M60.1,68L46.4,55.3l5.7-6.1l2.1,1.9l-2.9,3.1l3.4,3.1l2.2-2.4l2.1,1.9l-2.2,2.4l4.1,3.8l2.9-3.2l2,1.9L60.1,68
		z"/>
	<path class="st3" d="M72.5,57l-7.7-13.5l-2.4,1.4l-1.5-2.7l8.5-4.8l1.5,2.7l-2.4,1.4L76.1,55L72.5,57z"/>
	<path class="st3" d="M84.2,52c-1.3,0.4-2.5,0.5-3.4,0.3s-1.7-0.7-2.3-1.5c-0.6-0.8-1.1-1.8-1.5-3l-2-6.6c-0.4-1.2-0.5-2.3-0.5-3.3
		c0.1-1,0.4-1.8,1.1-2.5c0.6-0.7,1.6-1.3,3-1.7c1.3-0.4,2.5-0.5,3.4-0.3c0.9,0.2,1.7,0.7,2.3,1.5c0.6,0.8,1.1,1.8,1.5,3l2,6.6
		c0.4,1.2,0.5,2.3,0.5,3.3s-0.4,1.8-1.1,2.5C86.5,51,85.5,51.6,84.2,52z M83.3,49.2c0.4-0.1,0.7-0.3,0.8-0.6
		c0.1-0.3,0.2-0.6,0.1-0.9c0-0.3-0.1-0.7-0.2-1l-2.6-8.6c-0.1-0.4-0.2-0.7-0.4-1c-0.2-0.3-0.4-0.5-0.6-0.7c-0.3-0.1-0.6-0.2-1,0
		c-0.4,0.1-0.6,0.3-0.8,0.6s-0.2,0.6-0.1,0.9c0,0.3,0.1,0.7,0.2,1l2.6,8.6c0.1,0.3,0.2,0.7,0.4,1c0.1,0.3,0.3,0.5,0.6,0.7
		C82.6,49.3,82.9,49.3,83.3,49.2z"/>
	<path class="st3" d="M98.9,49.6l0.4-7.6l-3-11.2l3.9,0.2l1.5,6l1.9-5.8l3.7,0.2l-4,10.8l-0.4,7.6L98.9,49.6z"/>
	<path class="st3" d="M111.7,51.8c-1.3-0.4-2.3-0.9-3-1.6s-1-1.5-1.1-2.5c-0.1-1,0-2.1,0.4-3.3l1.9-6.7c0.4-1.2,0.8-2.2,1.4-3
		s1.3-1.3,2.3-1.5c0.9-0.2,2-0.2,3.4,0.2c1.4,0.4,2.4,0.9,3,1.6c0.7,0.7,1,1.5,1.1,2.5s0,2.1-0.4,3.3l-1.9,6.7
		c-0.3,1.2-0.8,2.2-1.4,3c-0.6,0.8-1.4,1.3-2.3,1.6C114.2,52.2,113,52.1,111.7,51.8z M112.5,48.9c0.4,0.1,0.7,0.1,1-0.1
		c0.3-0.2,0.5-0.4,0.6-0.7c0.2-0.3,0.3-0.6,0.4-1l2.5-8.6c0.1-0.4,0.2-0.7,0.2-1c0-0.3,0-0.6-0.2-0.9c-0.1-0.3-0.4-0.5-0.8-0.6
		c-0.4-0.1-0.7-0.1-1,0.1c-0.3,0.2-0.5,0.4-0.6,0.7c-0.2,0.3-0.3,0.6-0.4,1l-2.5,8.6c-0.1,0.3-0.2,0.7-0.2,1c0,0.3,0,0.6,0.1,0.9
		C111.8,48.6,112.1,48.8,112.5,48.9z"/>
	<path class="st3" d="M123,56.6c-1.2-0.7-2-1.5-2.5-2.3c-0.4-0.8-0.6-1.7-0.4-2.7s0.6-2,1.2-3.1l3.5-6c0.7-1.1,1.4-2,2.1-2.6
		s1.6-0.9,2.6-0.9c0.9,0,2,0.4,3.2,1.1c1.2,0.7,2,1.5,2.5,2.3s0.6,1.7,0.5,2.7s-0.6,2-1.2,3.1l-3.5,6c-0.6,1.1-1.4,1.9-2.1,2.6
		s-1.6,0.9-2.6,0.9S124.2,57.4,123,56.6z M124.5,54.1c0.4,0.2,0.7,0.3,1,0.2s0.5-0.3,0.8-0.5c0.2-0.3,0.4-0.5,0.6-0.8l4.6-7.7
		c0.2-0.3,0.3-0.6,0.5-0.9s0.1-0.6,0.1-0.9c-0.1-0.3-0.3-0.5-0.6-0.8c-0.3-0.2-0.7-0.3-0.9-0.2s-0.5,0.3-0.8,0.5s-0.4,0.5-0.6,0.9
		l-4.6,7.7c-0.2,0.3-0.3,0.6-0.5,0.9c-0.1,0.3-0.2,0.6-0.1,0.9C123.9,53.7,124.1,53.9,124.5,54.1z"/>
	<path class="st3" d="M129.2,60.3l13.2-13.2l2.1,2l-3.6,9l6.3-6.3l2.4,2.4l-13.2,13.2l-2-2l4.1-9.5l-6.8,6.8L129.2,60.3z"/>
	<path class="st3" d="M147.6,62.7l0.8-0.9c0.4,0.5,0.7,0.7,1.2,0.6c0.4-0.1,0.9-0.3,1.3-0.6l-0.9-1.3l2.7-1.9l1.9,2.7
		c-0.4,0.3-0.7,0.5-1.1,0.8c-0.4,0.2-0.7,0.5-1,0.7c-1.1,0.7-2,1.1-2.8,1.2C149,63.9,148.3,63.5,147.6,62.7z"/>
	<path class="st3" d="M142.1,77.6c-0.5-1-0.8-2-0.7-2.9s0.3-1.7,1-2.4c0.6-0.7,1.5-1.4,2.7-2.1l2,2.9c-0.7,0.4-1.3,0.7-1.6,1
		c-0.4,0.3-0.6,0.7-0.7,1s-0.1,0.6,0.1,0.9c0.2,0.4,0.4,0.6,0.8,0.6c0.3,0,0.6-0.1,0.9-0.2c0.7-0.3,1.2-0.8,1.5-1.3
		c0.3-0.6,0.6-1.2,0.8-2l0.6-2.1c0.2-0.9,0.6-1.7,1.1-2.5c0.5-0.8,1.2-1.4,2.2-1.9c1.4-0.7,2.7-0.8,3.9-0.3c1.2,0.5,2.1,1.4,2.8,2.9
		c0.4,0.9,0.6,1.7,0.6,2.4c0,0.7-0.2,1.3-0.6,1.8c-0.4,0.5-0.8,1-1.3,1.3s-1,0.7-1.5,0.9l-1.9-3c0.5-0.3,0.9-0.5,1.2-0.7
		c0.3-0.2,0.6-0.5,0.7-0.7c0.1-0.2,0.1-0.5,0-0.8c-0.2-0.3-0.4-0.5-0.8-0.5c-0.4,0-0.7,0-1,0.2c-0.6,0.3-1.1,0.7-1.3,1.2
		c-0.2,0.5-0.5,1.1-0.7,1.8l-0.5,2c-0.3,1-0.7,2-1.2,2.9c-0.5,0.9-1.4,1.6-2.5,2.2c-0.8,0.4-1.6,0.5-2.4,0.5c-0.8,0-1.6-0.3-2.3-0.8
		C143.1,79.1,142.6,78.5,142.1,77.6z"/>
	<path class="st3" d="M146.3,89.6l15.4-2.1l-0.4-2.8l3-0.4l1.3,9.6l-3,0.4l-0.4-2.8l-15.4,2.1L146.3,89.6z"/>
	<path class="st3" d="M147.4,95.6l18.4,4.7l-0.3,4.7l-18.8,2.3l0.2-3.8l4-0.4l0.2-2.7l-3.9-0.9L147.4,95.6z M153.4,100.9l-0.1,2
		l7.3-0.5L153.4,100.9z"/>
	<path class="st3" d="M146.4,108l17.8,5.6l-1.5,4.6c-0.2,0.8-0.5,1.5-0.9,2.1c-0.3,0.6-0.7,1.2-1.2,1.6c-0.5,0.4-1.1,0.7-1.8,0.8
		c-0.7,0.1-1.5,0-2.5-0.3c-0.7-0.2-1.3-0.5-1.7-0.9c-0.4-0.4-0.7-0.8-0.9-1.3c-0.2-0.5-0.2-1-0.1-1.6c-0.3,0.7-0.7,1.2-1.2,1.5
		c-0.5,0.4-1.1,0.6-1.8,0.6s-1.4-0.1-2.3-0.3c-0.9-0.3-1.7-0.7-2.3-1.1c-0.6-0.5-1-1-1.3-1.6c-0.3-0.6-0.4-1.2-0.4-2
		s0.1-1.5,0.4-2.4L146.4,108z M147.9,112.8l-0.3,0.8c-0.3,0.9-0.2,1.5,0.1,2c0.3,0.5,0.9,0.8,1.8,1.1c0.7,0.2,1.2,0.3,1.7,0.3
		s0.8-0.2,1.1-0.4c0.3-0.3,0.5-0.7,0.7-1.3l0.3-0.8L147.9,112.8z M155.8,115.3l-0.2,0.8c-0.2,0.6-0.2,1.1-0.2,1.4s0.3,0.7,0.6,0.9
		c0.3,0.2,0.7,0.4,1.2,0.6c0.5,0.1,0.9,0.2,1.3,0.1c0.4-0.1,0.7-0.2,0.9-0.5s0.5-0.7,0.6-1.2l0.2-0.7L155.8,115.3z"/>
	<path class="st3" d="M142.2,119.9l16,9.5l-2.1,3.5l-13.6-8.1l-2.2,3.7l-2.4-1.4L142.2,119.9z"/>
	<path class="st3" d="M137.4,127.8l14,12.3l-5.5,6.3l-2.1-1.9l2.8-3.2l-3.5-3.1l-2.1,2.4l-2.1-1.9l2.1-2.4l-4.2-3.7l-2.8,3.2
		l-2.1-1.8L137.4,127.8z"/>
	<path class="st3" d="M126.7,150.8l-6,3.6l2.7-6.6l-5.5-4.7l7.3,0.8l2.8-6.5l1.6,6.9l6.8,0.8l-5.9,3.5l1.4,6.6L126.7,150.8z"/>
</g>
<line class="st2" x1="66.6" y1="71.8" x2="130.4" y2="71.8"/>
<line class="st2" x1="67.5" y1="72.6" x2="67.5" y2="124.9"/>
<line class="st2" x1="67" y1="125.4" x2="129.8" y2="125.3"/>
<line class="st2" x1="131.5" y1="72.6" x2="67" y2="125.4"/>
</svg>
